<?xml version="1.0" encoding="utf-8"?>
<!-- Generator: Adobe Illustrator 27.0.1, SVG Export Plug-In . SVG Version: 6.00 Build 0)  -->
<svg version="1.1" id="Calque_1" xmlns="http://www.w3.org/2000/svg" xmlns:xlink="http://www.w3.org/1999/xlink" x="0px" y="0px"
	 viewBox="0 0 58 58" style="enable-background:new 0 0 58 58;" xml:space="preserve">
<style type="text/css">
	.st0{fill:#FFFFFF;}
</style>
<path class="st0" d="M20,16v2h-1c-1.6,0-3,1.4-3,3v18c0,1.7,1.4,3,3,3h20c1.7,0,3-1.3,3-3V21c0-1.6-1.3-3-3-3h-1v-2h-2v2H22v-2H20z
	 M19,20h1v2h2v-2h14v2h2v-2h1c0.6,0,1,0.4,1,1v3H18v-3C18,20.4,18.4,20,19,20z M18,26h22v13c0,0.6-0.4,1-1,1H19c-0.6,0-1-0.4-1-1V26
	z M24,28v2h2v-2H24z M28,28v2h2v-2H28z M32,28v2h2v-2H32z M36,28v2h2v-2H36z M20,32v2h2v-2H20z M24,32v2h2v-2H24z M28,32v2h2v-2H28z
	 M32,32v2h2v-2H32z M36,32v2h2v-2H36z M20,36v2h2v-2H20z M24,36v2h2v-2H24z M28,36v2h2v-2H28z"/>
<path class="st0" d="M41,58H17C7.6,58,0,50.4,0,41V17C0,7.6,7.6,0,17,0H41c9.4,0,17,7.6,17,17V41C58,50.4,50.4,58,41,58z M17,2
	C8.7,2,2,8.7,2,17V41c0,8.3,6.7,15,15,15H41c8.3,0,15-6.7,15-15V17c0-8.3-6.7-15-15-15C41,2,17,2,17,2z"/>
</svg>
