<?xml version="1.0" encoding="utf-8"?>
<!-- Generator: Adobe Illustrator 27.0.1, SVG Export Plug-In . SVG Version: 6.00 Build 0)  -->
<svg version="1.1" id="Calque_1" xmlns="http://www.w3.org/2000/svg" xmlns:xlink="http://www.w3.org/1999/xlink" x="0px" y="0px"
	 viewBox="0 0 58 58" style="enable-background:new 0 0 58 58;" xml:space="preserve">
<style type="text/css">
	.st0{fill:#FFFFFF;}
</style>
<path class="st0" d="M41,58H17C7.6,58,0,50.4,0,41V17C0,7.6,7.6,0,17,0H41c9.4,0,17,7.6,17,17V41C58,50.4,50.4,58,41,58z M17,2
	C8.7,2,2,8.7,2,17V41c0,8.3,6.7,15,15,15H41c8.3,0,15-6.7,15-15V17c0-8.3-6.7-15-15-15C41,2,17,2,17,2z"/>
<g>
	<path class="st0" d="M29,15c-7.7,0-14,6.3-14,14s6.3,14,14,14s14-6.3,14-14S36.7,15,29,15z M29,41c-6.6,0-12-5.4-12-12
		s5.4-12,12-12s12,5.4,12,12S35.6,41,29,41z"/>
	<path class="st0" d="M30,28.6V21c0-0.5-0.5-1-1-1s-1,0.5-1,1v8c0,0.1,0,0.3,0.1,0.4c0,0.1,0.1,0.2,0.2,0.3l4,4
		c0.2,0.2,0.5,0.3,0.7,0.3s0.5-0.1,0.7-0.3c0.4-0.4,0.4-1,0-1.4L30,28.6L30,28.6z"/>
	<circle class="st0" cx="21" cy="29" r="1"/>
	<path class="st0" d="M22.6,24.1c-0.5-0.3-1.1-0.1-1.4,0.4c-0.3,0.5-0.1,1.1,0.4,1.4c0.5,0.3,1.1,0.1,1.4-0.4
		C23.2,25,23.1,24.4,22.6,24.1z"/>
	<path class="st0" d="M24.5,21.2c-0.5,0.3-0.6,0.9-0.4,1.4s0.9,0.6,1.4,0.4s0.6-0.9,0.4-1.4C25.6,21.1,25,20.9,24.5,21.2z"/>
	<path class="st0" d="M25.5,35.1c-0.5-0.3-1.1-0.1-1.4,0.4s-0.1,1.1,0.4,1.4c0.5,0.3,1.1,0.1,1.4-0.4S26,35.3,25.5,35.1z"/>
	<path class="st0" d="M21.6,32.1c-0.5,0.3-0.6,0.9-0.4,1.4c0.3,0.5,0.9,0.6,1.4,0.4c0.5-0.3,0.6-0.9,0.4-1.4
		C22.7,32,22.1,31.9,21.6,32.1z"/>
</g>
</svg>
