<?xml version="1.0" encoding="utf-8"?>
<!-- Generator: Adobe Illustrator 27.0.1, SVG Export Plug-In . SVG Version: 6.00 Build 0)  -->
<svg version="1.1" id="Calque_1" xmlns="http://www.w3.org/2000/svg" xmlns:xlink="http://www.w3.org/1999/xlink" x="0px" y="0px"
	 viewBox="0 0 58 58" style="enable-background:new 0 0 58 58;" xml:space="preserve">
<style type="text/css">
	.st0{fill:#FFFFFF;}
</style>
<path class="st0" d="M41,58H17C7.6,58,0,50.4,0,41V17C0,7.6,7.6,0,17,0H41c9.4,0,17,7.6,17,17V41C58,50.4,50.4,58,41,58z M17,2
	C8.7,2,2,8.7,2,17V41c0,8.3,6.7,15,15,15H41c8.3,0,15-6.7,15-15V17c0-8.3-6.7-15-15-15C41,2,17,2,17,2z"/>
<g>
	<path class="st0" d="M29,46.4c-0.3,0-0.5-0.1-0.7-0.3l-9.2-9.2c-5.5-5.5-5.5-14.3,0-19.8s14.3-5.5,19.8,0s5.5,14.3,0,19.8l-9.2,9.2
		C29.5,46.3,29.3,46.4,29,46.4z M29,15c-3.1,0-6.1,1.2-8.5,3.5c-4.7,4.7-4.7,12.3,0,17L29,44l8.5-8.5c4.7-4.7,4.7-12.3,0-17
		C35.1,16.2,32.1,15,29,15z"/>
	<path class="st0" d="M29,33c-1.6,0-3.1-0.6-4.2-1.8S23,28.6,23,27s0.6-3.1,1.8-4.2S27.4,21,29,21s3.1,0.6,4.2,1.8S35,25.4,35,27
		s-0.6,3.1-1.8,4.2S30.6,33,29,33z M29,23c-1,0-2,0.4-2.8,1.2c-1.6,1.6-1.6,4.1,0,5.7s4.1,1.6,5.7,0s1.6-4.1,0-5.7
		C31,23.4,30,23,29,23z"/>
</g>
</svg>
